<?xml version="1.0" encoding="iso-8859-1"?>
<!-- Generator: Adobe Illustrator 19.0.0, SVG Export Plug-In . SVG Version: 6.00 Build 0)  -->
<svg version="1.1" id="Capa_1" xmlns="http://www.w3.org/2000/svg" xmlns:xlink="http://www.w3.org/1999/xlink" x="0px" y="0px"
	 viewBox="0 0 384.97 384.97" style="enable-background:new 0 0 384.97 384.97;" xml:space="preserve">
<g>
	<g id="Apps">
		<path d="M72.182,0H24.061C10.767,0,0,10.779,0,24.061v48.121c0,13.293,10.767,24.061,24.061,24.061h48.121
			c13.293,0,24.061-10.767,24.061-24.061V24.061C96.242,10.779,85.475,0,72.182,0z M72.182,72.182H24.061V24.061h48.121V72.182z"/>
		<path d="M216.545,0h-48.121c-13.293,0-24.061,10.779-24.061,24.061v48.121c0,13.293,10.767,24.061,24.061,24.061h48.121
			c13.281,0,24.061-10.767,24.061-24.061V24.061C240.606,10.779,229.827,0,216.545,0z M216.545,72.182h-48.121V24.061h48.121V72.182
			z"/>
		<path d="M360.909,0h-48.121c-13.293,0-24.061,10.779-24.061,24.061v48.121c0,13.293,10.767,24.061,24.061,24.061h48.121
			c13.281,0,24.061-10.767,24.061-24.061V24.061C384.97,10.779,374.191,0,360.909,0z M360.909,72.182h-48.121V24.061h48.121V72.182z
			"/>
		<path d="M72.182,144.364H24.061C10.767,144.364,0,155.131,0,168.424v48.121c0,13.293,10.767,24.061,24.061,24.061h48.121
			c13.293,0,24.061-10.767,24.061-24.061v-48.121C96.242,155.143,85.475,144.364,72.182,144.364z M72.182,216.545H24.061v-48.121
			h48.121V216.545z"/>
		<path d="M216.545,144.364h-48.121c-13.293,0-24.061,10.767-24.061,24.061v48.121c0,13.293,10.767,24.061,24.061,24.061h48.121
			c13.281,0,24.061-10.767,24.061-24.061v-48.121C240.606,155.143,229.827,144.364,216.545,144.364z M216.545,216.545h-48.121
			v-48.121h48.121V216.545z"/>
		<path d="M360.909,144.364h-48.121c-13.293,0-24.061,10.767-24.061,24.061v48.121c0,13.293,10.767,24.061,24.061,24.061h48.121
			c13.281,0,24.061-10.767,24.061-24.061v-48.121C384.97,155.143,374.191,144.364,360.909,144.364z M360.909,216.545h-48.121
			v-48.121h48.121V216.545z"/>
		<path d="M72.182,288.727H24.061C10.767,288.727,0,299.494,0,312.788v48.121c0,13.293,10.767,24.061,24.061,24.061h48.121
			c13.293,0,24.061-10.767,24.061-24.061v-48.121C96.242,299.506,85.475,288.727,72.182,288.727z M72.182,360.909H24.061v-48.121
			h48.121V360.909z"/>
		<path d="M216.545,288.727h-48.121c-13.293,0-24.061,10.767-24.061,24.061v48.121c0,13.293,10.767,24.061,24.061,24.061h48.121
			c13.281,0,24.061-10.767,24.061-24.061v-48.121C240.606,299.506,229.827,288.727,216.545,288.727z M216.545,360.909h-48.121
			v-48.121h48.121V360.909z"/>
		<path d="M360.909,288.727h-48.121c-13.293,0-24.061,10.767-24.061,24.061v48.121c0,13.293,10.767,24.061,24.061,24.061h48.121
			c13.281,0,24.061-10.767,24.061-24.061v-48.121C384.97,299.506,374.191,288.727,360.909,288.727z M360.909,360.909h-48.121
			v-48.121h48.121V360.909z"/>
	</g>
	<g>
	</g>
	<g>
	</g>
	<g>
	</g>
	<g>
	</g>
	<g>
	</g>
	<g>
	</g>
</g>
<g>
</g>
<g>
</g>
<g>
</g>
<g>
</g>
<g>
</g>
<g>
</g>
<g>
</g>
<g>
</g>
<g>
</g>
<g>
</g>
<g>
</g>
<g>
</g>
<g>
</g>
<g>
</g>
<g>
</g>
</svg>
